<svg xmlns="http://www.w3.org/2000/svg" version="1.1" xmlns:xlink="http://www.w3.org/1999/xlink" width="512" height="512" x="0" y="0" viewBox="0 0 682.667 682.667" style="enable-background:new 0 0 512 512" xml:space="preserve" class=""><g><defs><clipPath id="a" clipPathUnits="userSpaceOnUse"><path d="M0 512h512V0H0Z" fill="#baab5d" opacity="1" data-original="#000000"></path></clipPath></defs><g clip-path="url(#a)" transform="matrix(1.33333 0 0 -1.33333 0 682.667)"><path d="M0 0v-52.15l-263.02.01c-21.11 0-38.22-17.12-38.22-38.23l-.01-142.52h-52.14c-21.11 0-38.23 17.11-38.23 38.22V0c0 21.11 17.12 38.23 38.23 38.23h52.15v60.25L-241 38.23h202.78C-17.11 38.23 0 21.11 0 0Z" style="stroke-linecap: butt; stroke-linejoin: round; stroke-miterlimit: 10; stroke-dasharray: none; stroke-opacity: 1;" transform="translate(406.62 398.52)" fill="none" stroke="#BAAB5D" stroke-width="30px" stroke-linecap="butt" stroke-linejoin="round" stroke-miterlimit="10" stroke-dasharray="none" stroke-opacity="1" data-original="#000000" opacity="1" class=""></path><path d="m0 0-.01.01h.02zm202.77 180.75h-52.15l-263.02.01c-21.11 0-38.22-17.12-38.22-38.23L-150.63.01v-52.15c0-21.11 17.12-38.23 38.23-38.23H90.38l60.24-60.25v60.25h52.15c21.11 0 38.23 17.12 38.23 38.23v194.67c0 21.11-17.12 38.22-38.23 38.22z" style="stroke-linecap: butt; stroke-linejoin: round; stroke-miterlimit: 10; stroke-dasharray: none; stroke-opacity: 1;" transform="translate(256 165.62)" fill="none" stroke="#BAAB5D" stroke-width="30px" stroke-linecap="butt" stroke-linejoin="round" stroke-miterlimit="10" stroke-dasharray="none" stroke-opacity="1" data-original="#000000" opacity="1" class=""></path><path d="m0 0-.01-.01-.01.01Z" style="stroke-linecap: butt; stroke-linejoin: round; stroke-miterlimit: 10; stroke-dasharray: none; stroke-opacity: 1;" transform="translate(256.01 165.63)" fill="none" stroke="#BAAB5D" stroke-width="30px" stroke-linecap="butt" stroke-linejoin="round" stroke-miterlimit="10" stroke-dasharray="none" stroke-opacity="1" data-original="#000000" opacity="1" class=""></path><path d="m0 0-120.49-90.37" style="stroke-linecap: round; stroke-linejoin: round; stroke-miterlimit: 10; stroke-dasharray: none; stroke-opacity: 1;" transform="translate(376.5 256)" fill="none" stroke="#BAAB5D" stroke-width="30px" stroke-linecap="round" stroke-linejoin="round" stroke-miterlimit="10" stroke-dasharray="none" stroke-opacity="1" data-original="#000000" opacity="1" class=""></path><path d="m0 0-30.12 60.24" style="stroke-linecap: round; stroke-linejoin: round; stroke-miterlimit: 10; stroke-dasharray: none; stroke-opacity: 1;" transform="translate(255.99 165.63)" fill="none" stroke="#BAAB5D" stroke-width="30px" stroke-linecap="round" stroke-linejoin="round" stroke-miterlimit="10" stroke-dasharray="none" stroke-opacity="1" data-original="#000000" opacity="1" class=""></path></g></g></svg>